<?xml version="1.0" encoding="UTF-8" standalone="no"?>
<!DOCTYPE svg PUBLIC "-//W3C//DTD SVG 1.1//EN" "http://www.w3.org/Graphics/SVG/1.1/DTD/svg11.dtd">
<svg width="100%" height="100%" viewBox="0 0 1369 291" version="1.1" xmlns="http://www.w3.org/2000/svg" xmlns:xlink="http://www.w3.org/1999/xlink" xml:space="preserve" style="fill-rule:evenodd;clip-rule:evenodd;stroke-linecap:round;stroke-linejoin:round;stroke-miterlimit:1.5;">
    <g transform="matrix(1,0,0,1,0,-0.00071058)">
        <g transform="matrix(1,0,0,1,-282.277,-1995.03)">
            <g transform="matrix(0.551641,0,0,0.891206,282.277,-841.17)">
                <rect x="0" y="3182.43" width="2480.32" height="325.444" style="fill:rgb(0,60,83);"/>
            </g>
        </g>
        <g transform="matrix(1,0,0,1,-282.277,-1995.03)">
            <g transform="matrix(0.146689,0,0,0.146689,1023.39,1914.48)">
                <g transform="matrix(1,0,0,1,437.778,1753.94)">
                    <rect x="47.303" y="-366.469" width="32.228" height="366.469" style="fill:white;fill-rule:nonzero;"/>
                </g>
                <g transform="matrix(1,0,0,1,569.811,1753.94)">
                    <path d="M250.55,-160.623L250.55,0L218.842,0L218.842,-158.543C218.842,-183.494 213.817,-201.688 203.767,-213.124C193.717,-224.56 177.776,-230.278 155.944,-230.278C130.993,-230.278 110.98,-222.654 95.906,-207.406C80.831,-192.158 73.294,-171.712 73.294,-146.068L73.294,0L41.585,0L41.585,-252.11L72.774,-252.11L72.774,-208.965C80.744,-224.906 92.267,-237.122 107.342,-245.612C122.416,-254.102 139.83,-258.348 159.583,-258.348C220.228,-258.348 250.55,-225.773 250.55,-160.623Z" style="fill:white;fill-rule:nonzero;"/>
                    <path d="M457.956,-24.951L456.397,1.559C448.773,2.599 440.629,3.119 431.965,3.119C403.549,3.119 382.063,-4.592 367.508,-20.013C352.954,-35.434 345.676,-56.486 345.676,-83.17L345.676,-226.639L295.774,-226.639L295.774,-252.11L345.676,-252.11L345.676,-330.082L377.385,-330.082L377.385,-252.11L451.199,-252.11L451.199,-226.639L377.385,-226.639L377.385,-87.329C377.385,-66.19 382.323,-50.249 392.2,-39.506C402.076,-28.763 416.544,-23.392 435.604,-23.392C443.228,-23.392 450.679,-23.911 457.956,-24.951Z" style="fill:white;fill-rule:nonzero;"/>
                    <path d="M710.586,-122.156L519.814,-122.156C520.854,-90.621 529.171,-66.45 544.765,-49.642C560.359,-32.835 582.538,-24.431 611.301,-24.431C641.797,-24.431 669.347,-34.828 693.952,-55.62L706.427,-30.669C695.338,-20.273 681.216,-11.956 664.062,-5.718C646.909,0.52 629.321,3.639 611.301,3.639C572.835,3.639 542.513,-7.97 520.334,-31.189C498.155,-54.407 487.066,-86.289 487.066,-126.835C487.066,-152.825 492.004,-175.784 501.88,-195.71C511.757,-215.636 525.619,-231.057 543.466,-241.973C561.312,-252.89 581.845,-258.348 605.063,-258.348C637.985,-258.348 663.802,-247.605 682.516,-226.119C701.229,-204.633 710.586,-174.658 710.586,-136.191L710.586,-122.156ZM546.844,-209.485C532.29,-194.237 523.626,-172.925 520.854,-145.548L681.476,-145.548C680.783,-173.271 673.852,-194.67 660.684,-209.745C647.515,-224.82 628.975,-232.357 605.063,-232.357C580.806,-232.357 561.399,-224.733 546.844,-209.485Z" style="fill:white;fill-rule:nonzero;"/>
                    <path d="M908.635,-230.797L886.283,-228.718C858.906,-225.946 839.066,-217.109 826.764,-202.208C814.462,-187.306 808.311,-169.113 808.311,-147.627L808.311,0L776.602,0L776.602,-252.11L807.791,-252.11L807.791,-207.926C815.415,-223.52 826.244,-235.216 840.279,-243.013C854.314,-250.81 871.728,-255.575 892.521,-257.308L906.036,-258.348L908.635,-230.797Z" style="fill:white;fill-rule:nonzero;"/>
                    <path d="M1118.38,-234.436C1133.45,-218.495 1140.99,-194.41 1140.99,-162.182L1140.99,0L1109.8,0L1109.8,-45.224C1102.53,-29.629 1091.96,-17.587 1078.09,-9.097C1064.23,-0.606 1048.29,3.639 1030.27,3.639C1013.98,3.639 999.083,0.347 985.567,-6.238C972.052,-12.822 961.396,-22.005 953.599,-33.788C945.802,-45.57 941.903,-58.566 941.903,-72.774C941.903,-91.487 946.755,-106.042 956.458,-116.438C966.161,-126.835 982.275,-134.285 1004.8,-138.79C1027.33,-143.295 1058.69,-145.548 1098.89,-145.548L1109.8,-145.548L1109.8,-164.781C1109.8,-187.653 1105.12,-204.374 1095.77,-214.943C1086.41,-225.513 1071.68,-230.797 1051.58,-230.797C1036.34,-230.797 1021.69,-228.632 1007.66,-224.3C993.624,-219.968 979.156,-212.95 964.255,-203.247L952.299,-227.679C965.121,-237.035 980.369,-244.486 998.043,-250.031C1015.72,-255.575 1033.04,-258.348 1050.02,-258.348C1080.52,-258.348 1103.31,-250.377 1118.38,-234.436ZM1088.23,-46.783C1102.61,-62.031 1109.8,-81.438 1109.8,-105.002L1109.8,-122.156L1099.93,-122.156C1066.66,-122.156 1041.19,-120.77 1023.51,-117.998C1005.84,-115.225 993.365,-110.46 986.087,-103.703C978.81,-96.945 975.171,-87.155 975.171,-74.333C975.171,-59.779 980.716,-47.736 991.805,-38.206C1002.89,-28.676 1016.58,-23.911 1032.87,-23.911C1055.4,-23.911 1073.85,-31.535 1088.23,-46.783Z" style="fill:white;fill-rule:nonzero;"/>
                    <path d="M1263.41,-12.476C1245.56,-23.218 1231.79,-38.466 1222.08,-58.219C1212.38,-77.972 1207.53,-100.671 1207.53,-126.315C1207.53,-152.306 1212.47,-175.351 1222.34,-195.45C1232.22,-215.55 1246.17,-231.057 1264.19,-241.973C1282.21,-252.89 1303.35,-258.348 1327.61,-258.348C1344.59,-258.348 1360.96,-255.402 1376.73,-249.511C1392.5,-243.619 1405.23,-235.476 1414.93,-225.079L1402.98,-200.128C1390.16,-210.871 1377.77,-218.668 1365.81,-223.52C1353.86,-228.372 1341.47,-230.797 1328.64,-230.797C1301.61,-230.797 1280.21,-221.527 1264.45,-202.987C1248.68,-184.447 1240.8,-158.89 1240.8,-126.315C1240.8,-94.086 1248.59,-69.049 1264.19,-51.202C1279.78,-33.355 1301.09,-24.431 1328.12,-24.431C1340.95,-24.431 1353.34,-26.857 1365.29,-31.709C1377.25,-36.56 1389.81,-44.184 1402.98,-54.58L1414.93,-30.149C1404.54,-19.753 1391.37,-11.523 1375.43,-5.458C1359.49,0.606 1343.03,3.639 1326.05,3.639C1302.13,3.639 1281.26,-1.733 1263.41,-12.476Z" style="fill:white;fill-rule:nonzero;"/>
                    <path d="M1595.31,-24.951L1593.75,1.559C1586.13,2.599 1577.98,3.119 1569.32,3.119C1540.9,3.119 1519.42,-4.592 1504.86,-20.013C1490.31,-35.434 1483.03,-56.486 1483.03,-83.17L1483.03,-226.639L1433.13,-226.639L1433.13,-252.11L1483.03,-252.11L1483.03,-330.082L1514.74,-330.082L1514.74,-252.11L1588.55,-252.11L1588.55,-226.639L1514.74,-226.639L1514.74,-87.329C1514.74,-66.19 1519.68,-50.249 1529.55,-39.506C1539.43,-28.763 1553.9,-23.392 1572.96,-23.392C1580.58,-23.392 1588.03,-23.911 1595.31,-24.951Z" style="fill:white;fill-rule:nonzero;"/>
                    <path d="M1640.53,0L1640.53,-252.11L1672.24,-252.11L1672.24,0L1640.53,0ZM1635.86,-358.672L1677.44,-358.672L1677.44,-318.646L1635.86,-318.646L1635.86,-358.672Z" style="fill:white;fill-rule:nonzero;"/>
                    <path d="M1938.39,-252.11L1970.62,-252.11L1862.49,0L1830.27,0L1722.66,-252.11L1756.45,-252.11L1847.42,-32.228L1938.39,-252.11Z" style="fill:white;fill-rule:nonzero;"/>
                    <path d="M2225.32,-122.156L2034.55,-122.156C2035.59,-90.621 2043.91,-66.45 2059.5,-49.642C2075.1,-32.835 2097.28,-24.431 2126.04,-24.431C2156.53,-24.431 2184.09,-34.828 2208.69,-55.62L2221.16,-30.669C2210.08,-20.273 2195.95,-11.956 2178.8,-5.718C2161.65,0.52 2144.06,3.639 2126.04,3.639C2087.57,3.639 2057.25,-7.97 2035.07,-31.189C2012.89,-54.407 2001.8,-86.289 2001.8,-126.835C2001.8,-152.825 2006.74,-175.784 2016.62,-195.71C2026.5,-215.636 2040.36,-231.057 2058.2,-241.973C2076.05,-252.89 2096.58,-258.348 2119.8,-258.348C2152.72,-258.348 2178.54,-247.605 2197.25,-226.119C2215.97,-204.633 2225.32,-174.658 2225.32,-136.191L2225.32,-122.156ZM2061.58,-209.485C2047.03,-194.237 2038.36,-172.925 2035.59,-145.548L2196.21,-145.548C2195.52,-173.271 2188.59,-194.67 2175.42,-209.745C2162.25,-224.82 2143.71,-232.357 2119.8,-232.357C2095.54,-232.357 2076.14,-224.733 2061.58,-209.485Z" style="fill:white;fill-rule:nonzero;"/>
                </g>
            </g>
        </g>
        <g transform="matrix(1,0,0,1,-282.277,-1995.03)">
            <g transform="matrix(0.146689,0,0,0.146689,343.801,1914.48)">
                <g transform="matrix(1,0,0,1,437.778,1753.94)">
                    <path d="M317.087,-366.469L349.835,-366.469L191.292,0L162.182,0L3.639,-366.469L36.907,-366.469L177.257,-41.065L317.087,-366.469Z" style="fill:white;fill-rule:nonzero;"/>
                </g>
                <g transform="matrix(1,0,0,1,767.86,1753.94)">
                    <path d="M209.745,-234.436C224.82,-218.495 232.357,-194.41 232.357,-162.182L232.357,0L201.168,0L201.168,-45.224C193.891,-29.629 183.321,-17.587 169.459,-9.097C155.598,-0.606 139.657,3.639 121.636,3.639C105.349,3.639 90.448,0.347 76.932,-6.238C63.417,-12.822 52.761,-22.005 44.964,-33.788C37.167,-45.57 33.268,-58.566 33.268,-72.774C33.268,-91.487 38.12,-106.042 47.823,-116.438C57.526,-126.835 73.64,-134.285 96.166,-138.79C118.691,-143.295 150.053,-145.548 190.252,-145.548L201.168,-145.548L201.168,-164.781C201.168,-187.653 196.49,-204.374 187.133,-214.943C177.776,-225.513 163.048,-230.797 142.949,-230.797C127.701,-230.797 113.06,-228.632 99.025,-224.3C84.99,-219.968 70.521,-212.95 55.62,-203.247L43.664,-227.679C56.486,-237.035 71.734,-244.486 89.408,-250.031C107.082,-255.575 124.409,-258.348 141.389,-258.348C171.885,-258.348 194.67,-250.377 209.745,-234.436ZM179.596,-46.783C193.977,-62.031 201.168,-81.438 201.168,-105.002L201.168,-122.156L191.292,-122.156C158.023,-122.156 132.553,-120.77 114.879,-117.998C97.205,-115.225 84.73,-110.46 77.452,-103.703C70.175,-96.945 66.536,-87.155 66.536,-74.333C66.536,-59.779 72.081,-47.736 83.17,-38.206C94.26,-28.676 107.948,-23.911 124.236,-23.911C146.761,-23.911 165.214,-31.535 179.596,-46.783Z" style="fill:white;fill-rule:nonzero;"/>
                    <path d="M523.973,-160.623L523.973,0L492.264,0L492.264,-158.543C492.264,-183.494 487.239,-201.688 477.189,-213.124C467.14,-224.56 451.199,-230.278 429.366,-230.278C404.415,-230.278 384.402,-222.654 369.328,-207.406C354.253,-192.158 346.716,-171.712 346.716,-146.068L346.716,0L315.007,0L315.007,-252.11L346.196,-252.11L346.196,-208.965C354.167,-224.906 365.689,-237.122 380.764,-245.612C395.838,-254.102 413.252,-258.348 433.005,-258.348C493.65,-258.348 523.973,-225.773 523.973,-160.623Z" style="fill:white;fill-rule:nonzero;"/>
                    <path d="M774.783,-234.436C789.857,-218.495 797.395,-194.41 797.395,-162.182L797.395,0L766.206,0L766.206,-45.224C758.928,-29.629 748.359,-17.587 734.497,-9.097C720.635,-0.606 704.695,3.639 686.674,3.639C670.387,3.639 655.485,0.347 641.97,-6.238C628.455,-12.822 617.799,-22.005 610.002,-33.788C602.205,-45.57 598.306,-58.566 598.306,-72.774C598.306,-91.487 603.158,-106.042 612.861,-116.438C622.564,-126.835 638.678,-134.285 661.203,-138.79C683.729,-143.295 715.091,-145.548 755.29,-145.548L766.206,-145.548L766.206,-164.781C766.206,-187.653 761.528,-204.374 752.171,-214.943C742.814,-225.513 728.086,-230.797 707.987,-230.797C692.739,-230.797 678.097,-228.632 664.062,-224.3C650.027,-219.968 635.559,-212.95 620.658,-203.247L608.702,-227.679C621.524,-237.035 636.772,-244.486 654.446,-250.031C672.12,-255.575 689.447,-258.348 706.427,-258.348C736.923,-258.348 759.708,-250.377 774.783,-234.436ZM744.634,-46.783C759.015,-62.031 766.206,-81.438 766.206,-105.002L766.206,-122.156L756.329,-122.156C723.061,-122.156 697.59,-120.77 679.917,-117.998C662.243,-115.225 649.768,-110.46 642.49,-103.703C635.213,-96.945 631.574,-87.155 631.574,-74.333C631.574,-59.779 637.119,-47.736 648.208,-38.206C659.297,-28.676 672.986,-23.911 689.273,-23.911C711.799,-23.911 730.252,-31.535 744.634,-46.783Z" style="fill:white;fill-rule:nonzero;"/>
                    <path d="M1094.73,-366.469L1094.73,0L1063.02,0L1063.02,-48.343C1055.4,-31.362 1044.13,-18.453 1029.23,-9.617C1014.33,-0.78 996.657,3.639 976.211,3.639C954.032,3.639 934.452,-1.819 917.472,-12.735C900.491,-23.652 887.322,-39.073 877.966,-58.999C868.609,-78.925 863.931,-102.057 863.931,-128.394C863.931,-154.385 868.609,-177.17 877.966,-196.75C887.322,-216.329 900.491,-231.491 917.472,-242.233C934.452,-252.976 954.032,-258.348 976.211,-258.348C996.657,-258.348 1014.33,-253.929 1029.23,-245.092C1044.13,-236.255 1055.4,-223.347 1063.02,-206.366L1063.02,-366.469L1094.73,-366.469ZM1041.45,-51.202C1055.83,-69.049 1063.02,-94.433 1063.02,-127.354C1063.02,-160.276 1055.92,-185.747 1041.71,-203.767C1027.5,-221.787 1007.23,-230.797 980.889,-230.797C954.205,-230.797 933.586,-221.874 919.031,-204.027C904.476,-186.18 897.199,-160.969 897.199,-128.394C897.199,-95.473 904.476,-69.915 919.031,-51.721C933.586,-33.528 954.032,-24.431 980.369,-24.431C1006.71,-24.431 1027.07,-33.355 1041.45,-51.202Z" style="fill:white;fill-rule:nonzero;"/>
                    <path d="M1177.9,0L1177.9,-252.11L1209.61,-252.11L1209.61,0L1177.9,0ZM1173.22,-358.672L1214.81,-358.672L1214.81,-318.646L1173.22,-318.646L1173.22,-358.672Z" style="fill:white;fill-rule:nonzero;"/>
                    <path d="M1497.58,-252.11L1497.58,0L1466.39,0L1466.39,-45.224C1458.42,-29.283 1447.08,-17.154 1432.35,-8.837C1417.62,-0.52 1400.9,3.639 1382.18,3.639C1352.38,3.639 1329.94,-4.592 1314.87,-21.052C1299.8,-37.513 1292.26,-61.858 1292.26,-94.086L1292.26,-252.11L1323.97,-252.11L1323.97,-96.166C1323.97,-71.561 1328.9,-53.454 1338.78,-41.845C1348.66,-30.236 1364.16,-24.431 1385.3,-24.431C1409.56,-24.431 1429.06,-32.142 1443.78,-47.563C1458.51,-62.984 1465.88,-83.517 1465.88,-109.161L1465.88,-252.11L1497.58,-252.11Z" style="fill:white;fill-rule:nonzero;"/>
                    <path d="M1936.83,-160.623L1936.83,0L1905.12,0L1905.12,-158.543C1905.12,-183.841 1900.61,-202.121 1891.6,-213.384C1882.59,-224.646 1868.21,-230.278 1848.46,-230.278C1825.93,-230.278 1808,-222.654 1794.66,-207.406C1781.32,-192.158 1774.64,-171.539 1774.64,-145.548L1774.64,0L1742.94,0L1742.94,-158.543C1742.94,-183.841 1738.43,-202.121 1729.42,-213.384C1720.41,-224.646 1706.03,-230.278 1686.28,-230.278C1663.75,-230.278 1645.82,-222.654 1632.48,-207.406C1619.13,-192.158 1612.46,-171.539 1612.46,-145.548L1612.46,0L1580.75,0L1580.75,-252.11L1611.94,-252.11L1611.94,-210.525C1619.22,-226.119 1629.7,-237.988 1643.39,-246.132C1657.08,-254.276 1672.93,-258.348 1690.95,-258.348C1731.5,-258.348 1757.32,-241.714 1768.41,-208.445C1775.68,-224.04 1786.77,-236.255 1801.67,-245.092C1816.58,-253.929 1833.73,-258.348 1853.14,-258.348C1908.93,-258.348 1936.83,-225.773 1936.83,-160.623Z" style="fill:white;fill-rule:nonzero;"/>
                    <path d="M2155.67,-366.469L2294.46,-366.469C2332.58,-366.469 2362.12,-357.285 2383.09,-338.919C2404.05,-320.552 2414.54,-294.561 2414.54,-260.947C2414.54,-226.985 2403.97,-200.735 2382.83,-182.195C2361.69,-163.655 2332.23,-154.385 2294.46,-154.385L2187.9,-154.385L2187.9,0L2155.67,0L2155.67,-366.469ZM2292.38,-181.935C2352.33,-181.935 2382.31,-208.272 2382.31,-260.947C2382.31,-312.928 2352.33,-338.919 2292.38,-338.919L2187.9,-338.919L2187.9,-181.935L2292.38,-181.935Z" style="fill:white;fill-rule:nonzero;"/>
                    <path d="M2608.43,-230.797L2586.08,-228.718C2558.7,-225.946 2538.86,-217.109 2526.56,-202.208C2514.25,-187.306 2508.1,-169.113 2508.1,-147.627L2508.1,0L2476.39,0L2476.39,-252.11L2507.58,-252.11L2507.58,-207.926C2515.21,-223.52 2526.04,-235.216 2540.07,-243.013C2554.11,-250.81 2571.52,-255.575 2592.31,-257.308L2605.83,-258.348L2608.43,-230.797Z" style="fill:white;fill-rule:nonzero;"/>
                    <path d="M2854.82,-122.156L2664.05,-122.156C2665.09,-90.621 2673.4,-66.45 2689,-49.642C2704.59,-32.835 2726.77,-24.431 2755.53,-24.431C2786.03,-24.431 2813.58,-34.828 2838.18,-55.62L2850.66,-30.669C2839.57,-20.273 2825.45,-11.956 2808.3,-5.718C2791.14,0.52 2773.55,3.639 2755.53,3.639C2717.07,3.639 2686.74,-7.97 2664.57,-31.189C2642.39,-54.407 2631.3,-86.289 2631.3,-126.835C2631.3,-152.825 2636.24,-175.784 2646.11,-195.71C2655.99,-215.636 2669.85,-231.057 2687.7,-241.973C2705.55,-252.89 2726.08,-258.348 2749.3,-258.348C2782.22,-258.348 2808.03,-247.605 2826.75,-226.119C2845.46,-204.633 2854.82,-174.658 2854.82,-136.191L2854.82,-122.156ZM2691.08,-209.485C2676.52,-194.237 2667.86,-172.925 2665.09,-145.548L2825.71,-145.548C2825.02,-173.271 2818.09,-194.67 2804.92,-209.745C2791.75,-224.82 2773.21,-232.357 2749.3,-232.357C2725.04,-232.357 2705.63,-224.733 2691.08,-209.485Z" style="fill:white;fill-rule:nonzero;"/>
                </g>
                <g transform="matrix(1,0,0,1,3649.75,1753.94)">
                    <path d="M25.991,-30.149L37.946,-54.58C51.462,-43.491 64.977,-35.607 78.492,-30.929C92.007,-26.251 107.601,-23.911 125.275,-23.911C145.721,-23.911 161.402,-27.55 172.318,-34.828C183.234,-42.105 188.692,-52.328 188.692,-65.497C188.692,-76.586 185.054,-85.509 177.776,-92.267C170.499,-99.025 158.89,-104.136 142.949,-107.601L100.324,-117.478C79.878,-122.33 63.85,-130.733 52.241,-142.689C40.632,-154.645 34.828,-168.766 34.828,-185.054C34.828,-206.886 43.318,-224.56 60.298,-238.075C77.279,-251.59 99.978,-258.348 128.394,-258.348C146.068,-258.348 162.615,-255.489 178.036,-249.771C193.457,-244.053 206.193,-235.822 216.243,-225.079L204.287,-200.648C192.504,-211.044 180.462,-218.668 168.16,-223.52C155.858,-228.372 142.602,-230.797 128.394,-230.797C109.334,-230.797 94.433,-226.985 83.69,-219.362C72.947,-211.738 67.576,-201.168 67.576,-187.653C67.576,-176.563 70.955,-167.553 77.712,-160.623C84.47,-153.692 94.953,-148.494 109.161,-145.028L152.306,-134.632C198.049,-124.236 220.921,-101.71 220.921,-67.056C220.921,-45.57 212.171,-28.416 194.67,-15.594C177.17,-2.772 153.518,3.639 123.716,3.639C83.863,3.639 51.288,-7.624 25.991,-30.149Z" style="fill:white;fill-rule:nonzero;"/>
                    <path d="M274.462,-30.149L286.418,-54.58C299.933,-43.491 313.448,-35.607 326.963,-30.929C340.478,-26.251 356.073,-23.911 373.746,-23.911C394.192,-23.911 409.873,-27.55 420.789,-34.828C431.706,-42.105 437.164,-52.328 437.164,-65.497C437.164,-76.586 433.525,-85.509 426.247,-92.267C418.97,-99.025 407.361,-104.136 391.42,-107.601L348.795,-117.478C328.349,-122.33 312.322,-130.733 300.712,-142.689C289.103,-154.645 283.299,-168.766 283.299,-185.054C283.299,-206.886 291.789,-224.56 308.77,-238.075C325.75,-251.59 348.449,-258.348 376.865,-258.348C394.539,-258.348 411.086,-255.489 426.507,-249.771C441.929,-244.053 454.664,-235.822 464.714,-225.079L452.758,-200.648C440.976,-211.044 428.933,-218.668 416.631,-223.52C404.329,-228.372 391.073,-230.797 376.865,-230.797C357.805,-230.797 342.904,-226.985 332.161,-219.362C321.418,-211.738 316.047,-201.168 316.047,-187.653C316.047,-176.563 319.426,-167.553 326.183,-160.623C332.941,-153.692 343.424,-148.494 357.632,-145.028L400.777,-134.632C446.52,-124.236 469.392,-101.71 469.392,-67.056C469.392,-45.57 460.642,-28.416 443.141,-15.594C425.641,-2.772 401.989,3.639 372.187,3.639C332.334,3.639 299.759,-7.624 274.462,-30.149Z" style="fill:white;fill-rule:nonzero;"/>
                </g>
            </g>
        </g>
        <g transform="matrix(1,0,0,1,-282.277,-1995.03)">
            <g transform="matrix(0.348228,0,0,0.373895,818.595,1615.87)">
                <path d="M1926.1,1291.76C1926.1,1267.18 1904.67,1247.23 1878.29,1247.23L699.432,1247.23C673.046,1247.23 651.624,1267.18 651.624,1291.76L651.624,1539.4C651.624,1563.98 673.046,1583.93 699.432,1583.93L1878.29,1583.93C1904.67,1583.93 1926.1,1563.98 1926.1,1539.4L1926.1,1291.76Z" style="fill:none;stroke:white;stroke-width:11.53px;"/>
            </g>
        </g>
        <g transform="matrix(1,0,0,1,-282.277,-1995.03)">
            <g transform="matrix(0.500598,0,0,0.373895,33.0909,1615.87)">
                <path d="M1926.1,1291.76C1926.1,1267.18 1911.19,1247.23 1892.84,1247.23L684.88,1247.23C666.526,1247.23 651.624,1267.18 651.624,1291.76L651.624,1539.4C651.624,1563.98 666.526,1583.93 684.88,1583.93L1892.84,1583.93C1911.19,1583.93 1926.1,1563.98 1926.1,1539.4L1926.1,1291.76Z" style="fill:none;stroke:white;stroke-width:9.43px;"/>
            </g>
        </g>
    </g>
</svg>
